<?xml version="1.0" encoding="utf-8"?>
<!-- Generator: Adobe Illustrator 21.0.2, SVG Export Plug-In . SVG Version: 6.00 Build 0)  -->
<svg version="1.0" id="Laag_1" xmlns="http://www.w3.org/2000/svg" xmlns:xlink="http://www.w3.org/1999/xlink" x="0px" y="0px"
	 viewBox="0 0 798.3 159.2" style="enable-background:new 0 0 798.3 159.2;" xml:space="preserve">
<style type="text/css">
	.st0{fill:#FFFFFF;}
</style>
<g>
	<g>
		<g>
			<path class="st0" d="M549.2,83.7V23.9h-1c-7.4,0.2-14.6,2.7-14.9,7.2v116c0,7.4,12.2,11.3,24.2,11.3h45.7
				c12,0,24.2-3.9,24.2-11.3v-21.6c-7.8,0-15.7,2.5-15.8,7.4v8.2c-0.6,0.6-3.3,2-8.3,2h-45.7c-5,0-7.7-1.4-8.3-2V99.6h23.6
				c4.8-0.1,7.3-8,7.4-15.8H549.2z"/>
			<path class="st0" d="M751.9,132.8v8.3c-0.6,0.6-3.3,2-8.3,2h-69.2c-5,0-7.7-1.4-8.3-2V99.6h61.7c12,0,24.2-3.9,24.2-11.3V35.3
				c0-7.4-12.2-11.3-24.2-11.3h-53.3c-12,0-24.2,3.9-24.2,11.3v112.2c0,7.4,12.2,11.3,24.2,11.3h69.2c12,0,24.2-3.9,24.2-11.3v-22
				C759.9,125.5,752.1,128,751.9,132.8z M666.1,41.7c0.6-0.6,3.3-2,8.3-2h53.3c5,0,7.7,1.4,8.3,2v40c-0.6,0.6-3.3,2-8.3,2h-61.7
				V41.7z"/>
			<path class="st0" d="M355.6,132.8v8.3c-0.6,0.6-3.3,2-8.3,2h-69.2c-5,0-7.7-1.4-8.3-2V99.6h61.7c12,0,24.2-3.9,24.2-11.3V35.3
				c0-7.4-12.2-11.3-24.2-11.3h-53.3c-12,0-24.2,3.9-24.2,11.3v112.2c0,7.4,12.2,11.3,24.2,11.3h69.2c12,0,24.2-3.9,24.2-11.3v-22
				C363.6,125.5,355.7,128,355.6,132.8z M269.7,41.7c0.6-0.6,3.3-2,8.3-2h53.3c5,0,7.7,1.4,8.3,2v40c-0.6,0.6-3.3,2-8.3,2h-61.7
				V41.7z"/>
			<path class="st0" d="M424.4,50v-8.3c0.6-0.6,3.3-2,8.3-2l53.3,0c5,0,7.7,1.4,8.3,2l0,42l-77.5,0c-12,0-24.2,3.9-24.2,11.3l0,52.4
				c0,7.4,12.2,11.3,24.2,11.3l69.2,0c12,0,24.2-3.9,24.2-11.3l0-112.2c0-7.4-12.2-11.3-24.2-11.3l-53.3,0c-12,0-24.2,3.9-24.2,11.3
				l0,22C416.4,57.3,424.2,54.8,424.4,50z M494.4,141c-0.6,0.6-3.3,2-8.3,2l-69.2,0c-5,0-7.7-1.4-8.3-2l0-39.5c0.6-0.6,3.3-2,8.3-2
				l77.5,0L494.4,141z"/>
			<path class="st0" d="M101.7,132.9v8.1c-0.6,0.6-3.3,2-8.3,2H24.2c-5,0-7.7-1.4-8.3-2V41.7c0.6-0.6,3.3-2,8.3-2h53.3
				c5,0,7.7,1.4,8.3,2V50h0c0,4.5,6.8,7,14,7.4h1.8V35.3c0-7.4-12.2-11.3-24.2-11.3H24.2C12.2,23.9,0,27.8,0,35.3v112.2
				c0,7.4,12.2,11.3,24.2,11.3h69.2c12,0,24.2-3.9,24.2-11.3v-22C109.6,125.5,101.7,128,101.7,132.9z"/>
			<path class="st0" d="M208.4,23.9h-45.7c-12,0-24.2,3.9-24.2,11.3v123.9h15.8V41.7c0.6-0.6,3.3-2,8.3-2h45.7c5,0,7.7,1.4,8.3,2
				v8.5c0.3,4.3,6.9,6.8,14,7.1h1.8V35.3C232.6,27.8,220.4,23.9,208.4,23.9z"/>
		</g>
		<g>
			<path class="st0" d="M798.3,11.8c0,1.9-0.3,3.6-0.9,5c-0.6,1.5-1.4,2.7-2.4,3.7c-1,1-2.2,1.8-3.5,2.3c-1.3,0.5-2.8,0.8-4.2,0.8
				c-1.5,0-2.9-0.3-4.2-0.8c-1.3-0.5-2.5-1.3-3.5-2.3c-1-1-1.8-2.3-2.4-3.7c-0.6-1.5-0.9-3.1-0.9-5c0-1.9,0.3-3.5,0.9-5
				c0.6-1.5,1.4-2.7,2.4-3.7c1-1,2.2-1.8,3.5-2.3c1.3-0.5,2.7-0.8,4.2-0.8c1.5,0,2.9,0.3,4.2,0.8c1.3,0.5,2.5,1.3,3.5,2.3
				c1,1,1.8,2.2,2.4,3.7C798,8.3,798.3,10,798.3,11.8z M796.4,11.8c0-1.5-0.2-2.9-0.7-4.1c-0.5-1.2-1.1-2.3-1.9-3.2
				c-0.8-0.9-1.8-1.6-2.9-2c-1.1-0.5-2.4-0.7-3.7-0.7c-1.3,0-2.6,0.2-3.7,0.7c-1.1,0.5-2.1,1.2-2.9,2s-1.4,2-1.9,3.2
				c-0.5,1.2-0.7,2.6-0.7,4.1c0,1.5,0.2,2.9,0.7,4.1c0.5,1.2,1.1,2.3,1.9,3.2c0.8,0.9,1.8,1.6,2.9,2.1c1.1,0.5,2.4,0.7,3.7,0.7
				c1.3,0,2.6-0.2,3.7-0.7c1.1-0.5,2.1-1.2,2.9-2.1c0.8-0.9,1.4-2,1.9-3.2C796.1,14.7,796.4,13.3,796.4,11.8z M787.3,18.6
				c-0.9,0-1.6-0.2-2.4-0.5c-0.7-0.3-1.4-0.7-1.9-1.3c-0.5-0.6-1-1.3-1.3-2.1s-0.5-1.8-0.5-2.9c0-1,0.2-2,0.5-2.8
				c0.3-0.8,0.8-1.5,1.4-2.1c0.6-0.6,1.2-1,2-1.3c0.7-0.3,1.5-0.4,2.3-0.4c1.1,0,1.9,0.1,2.6,0.4c0.7,0.3,1.1,0.5,1.4,0.7l-0.6,1.5
				c-0.3-0.2-0.7-0.4-1.3-0.6c-0.5-0.2-1.2-0.3-2.1-0.3c-1.2,0-2.2,0.4-3,1.3c-0.8,0.9-1.2,2.1-1.2,3.6c0,1.6,0.4,2.9,1.2,3.7
				c0.8,0.9,1.8,1.3,3.2,1.3c0.9,0,1.7-0.1,2.2-0.3c0.5-0.2,0.9-0.4,1.2-0.5l0.6,1.6c-0.3,0.2-0.8,0.4-1.5,0.6
				C789.3,18.4,788.4,18.6,787.3,18.6z"/>
		</g>
	</g>
</g>
</svg>
